<?xml version="1.0" standalone="no"?>
<!DOCTYPE svg PUBLIC "-//W3C//DTD SVG 20010904//EN"
 "http://www.w3.org/TR/2001/REC-SVG-20010904/DTD/svg10.dtd">
<svg version="1.0" xmlns="http://www.w3.org/2000/svg"
 width="180.000000pt" height="180.000000pt" viewBox="0 0 180.000000 180.000000"
 preserveAspectRatio="xMidYMid meet">
<metadata>
Created by potrace 1.11, written by Peter Selinger 2001-2013
</metadata>
<g transform="translate(0.000000,180.000000) scale(0.100000,-0.100000)"
fill="#000000" stroke="none">
<path d="M1083 1602 c-53 -29 -82 -58 -223 -227 -41 -50 -80 -96 -87 -103 -20
-21 -198 -245 -221 -278 -46 -67 -45 -149 4 -191 38 -33 79 -38 257 -35 92 1
157 -2 157 -7 0 -11 -35 -55 -111 -136 -31 -33 -68 -73 -83 -90 -15 -16 -40
-43 -55 -60 -106 -114 -130 -148 -137 -191 -3 -24 -3 -56 0 -70 7 -25 10 -26
54 -21 41 4 53 12 100 62 29 31 105 127 170 213 64 86 120 159 125 160 4 2 7
10 7 17 0 7 4 15 8 17 5 2 24 26 43 53 19 28 47 67 63 88 23 30 30 50 30 85
l1 47 -50 0 c-44 -1 -110 -6 -245 -20 -183 -19 -239 6 -177 77 41 46 138 156
202 227 120 134 232 227 303 252 16 5 36 23 46 40 16 27 17 34 5 56 -28 52
-122 70 -186 35z"/>
</g>
</svg>
